<svg xmlns="http://www.w3.org/2000/svg" width="1000" height="600" viewBox="0 0 1000 600">
<rect x="0" y="0" width="100%" height="100%" fill="white"/>
<text x="500.0" y="32" text-anchor="middle" font-family="Arial" font-size="18" fill="#111">Arm selection frequency — ucb_sweep</text>
<line x1="80" y1="510.00" x2="980" y2="510.00" stroke="#D9D9D9" stroke-width="1"/>
<text x="70" y="514.00" text-anchor="end" font-family="Arial" font-size="12" fill="#111">0</text>
<line x1="80" y1="420.00" x2="980" y2="420.00" stroke="#D9D9D9" stroke-width="1"/>
<text x="70" y="424.00" text-anchor="end" font-family="Arial" font-size="12" fill="#111">0.2</text>
<line x1="80" y1="330.00" x2="980" y2="330.00" stroke="#D9D9D9" stroke-width="1"/>
<text x="70" y="334.00" text-anchor="end" font-family="Arial" font-size="12" fill="#111">0.4</text>
<line x1="80" y1="240.00" x2="980" y2="240.00" stroke="#D9D9D9" stroke-width="1"/>
<text x="70" y="244.00" text-anchor="end" font-family="Arial" font-size="12" fill="#111">0.6</text>
<line x1="80" y1="150.00" x2="980" y2="150.00" stroke="#D9D9D9" stroke-width="1"/>
<text x="70" y="154.00" text-anchor="end" font-family="Arial" font-size="12" fill="#111">0.8</text>
<line x1="80" y1="60.00" x2="980" y2="60.00" stroke="#D9D9D9" stroke-width="1"/>
<text x="70" y="64.00" text-anchor="end" font-family="Arial" font-size="12" fill="#111">1</text>
<line x1="80" y1="60" x2="80" y2="510" stroke="#222" stroke-width="2"/>
<line x1="80" y1="510" x2="980" y2="510" stroke="#222" stroke-width="2"/>
<text x="155.00" y="534" text-anchor="middle" font-family="Arial" font-size="12" fill="#111">0</text>
<rect x="95.00" y="507.38" width="30.00" height="2.62" fill="#1f77b4"/>
<rect x="125.00" y="501.08" width="30.00" height="8.92" fill="#ff7f0e"/>
<rect x="155.00" y="488.16" width="30.00" height="21.84" fill="#2ca02c"/>
<rect x="185.00" y="468.67" width="30.00" height="41.33" fill="#d62728"/>
<text x="305.00" y="534" text-anchor="middle" font-family="Arial" font-size="12" fill="#111">1</text>
<rect x="245.00" y="506.38" width="30.00" height="3.62" fill="#1f77b4"/>
<rect x="275.00" y="498.66" width="30.00" height="11.34" fill="#ff7f0e"/>
<rect x="305.00" y="479.92" width="30.00" height="30.08" fill="#2ca02c"/>
<rect x="335.00" y="463.83" width="30.00" height="46.17" fill="#d62728"/>
<text x="455.00" y="534" text-anchor="middle" font-family="Arial" font-size="12" fill="#111">2</text>
<rect x="395.00" y="500.87" width="30.00" height="9.13" fill="#1f77b4"/>
<rect x="425.00" y="489.15" width="30.00" height="20.85" fill="#ff7f0e"/>
<rect x="455.00" y="468.31" width="30.00" height="41.69" fill="#2ca02c"/>
<rect x="485.00" y="447.52" width="30.00" height="62.48" fill="#d62728"/>
<text x="605.00" y="534" text-anchor="middle" font-family="Arial" font-size="12" fill="#111">3</text>
<rect x="545.00" y="477.67" width="30.00" height="32.33" fill="#1f77b4"/>
<rect x="575.00" y="465.49" width="30.00" height="44.51" fill="#ff7f0e"/>
<rect x="605.00" y="439.07" width="30.00" height="70.93" fill="#2ca02c"/>
<rect x="635.00" y="430.31" width="30.00" height="79.69" fill="#d62728"/>
<text x="755.00" y="534" text-anchor="middle" font-family="Arial" font-size="12" fill="#111">4</text>
<rect x="695.00" y="393.90" width="30.00" height="116.10" fill="#1f77b4"/>
<rect x="725.00" y="404.13" width="30.00" height="105.87" fill="#ff7f0e"/>
<rect x="755.00" y="391.35" width="30.00" height="118.65" fill="#2ca02c"/>
<rect x="785.00" y="409.08" width="30.00" height="100.92" fill="#d62728"/>
<text x="905.00" y="534" text-anchor="middle" font-family="Arial" font-size="12" fill="#111">5</text>
<rect x="845.00" y="223.79" width="30.00" height="286.21" fill="#1f77b4"/>
<rect x="875.00" y="251.50" width="30.00" height="258.50" fill="#ff7f0e"/>
<rect x="905.00" y="343.18" width="30.00" height="166.82" fill="#2ca02c"/>
<rect x="935.00" y="390.59" width="30.00" height="119.41" fill="#d62728"/>
<polyline fill="none" stroke="#000000" stroke-width="2" stroke-dasharray="6,4" points="155.00,249.00 305.00,235.50 455.00,217.50 605.00,199.50 755.00,186.00 905.00,177.00"/>
<text x="500.0" y="580" text-anchor="middle" font-family="Arial" font-size="14" fill="#111">Arm (segment / policy variant)</text>
<text x="24" y="300.0" text-anchor="middle" font-family="Arial" font-size="14" fill="#111" transform="rotate(-90 24 300.0)">Selection frequency</text>
<rect x="90" y="70" width="360" height="100" fill="white" stroke="#BBB" stroke-width="1" opacity="0.95"/>
<rect x="100" y="80" width="18" height="10" fill="#1f77b4"/>
<text x="125" y="89" font-family="Arial" font-size="12" fill="#111">UCB1 (c=0.25)</text>
<rect x="100" y="98" width="18" height="10" fill="#ff7f0e"/>
<text x="125" y="107" font-family="Arial" font-size="12" fill="#111">UCB1 (c=0.50)</text>
<rect x="100" y="116" width="18" height="10" fill="#2ca02c"/>
<text x="125" y="125" font-family="Arial" font-size="12" fill="#111">UCB1 (c=1.00)</text>
<rect x="100" y="134" width="18" height="10" fill="#d62728"/>
<text x="125" y="143" font-family="Arial" font-size="12" fill="#111">UCB1 (c=2.00)</text>
<rect x="100" y="152" width="18" height="10" fill="#000000"/>
<text x="125" y="161" font-family="Arial" font-size="12" fill="#111">True p(repay)</text>
</svg>